<?xml version="1.0" encoding="UTF-8" standalone="no"?>
<!-- Created with Inkscape (http://www.inkscape.org/) -->

<svg
   xmlns:dc="http://purl.org/dc/elements/1.1/"
   xmlns:cc="http://creativecommons.org/ns#"
   xmlns:rdf="http://www.w3.org/1999/02/22-rdf-syntax-ns#"
   xmlns:svg="http://www.w3.org/2000/svg"
   xmlns="http://www.w3.org/2000/svg"
   xmlns:xlink="http://www.w3.org/1999/xlink"
   xmlns:sodipodi="http://sodipodi.sourceforge.net/DTD/sodipodi-0.dtd"
   xmlns:inkscape="http://www.inkscape.org/namespaces/inkscape"
   width="211.36034mm"
   height="15.234246mm"
   viewBox="0 0 211.36034 15.234246"
   version="1.1"
   id="svg8"
   inkscape:version="0.92.3 (2405546, 2018-03-11)"
   sodipodi:docname="rysunek.svg">
  <defs
     id="defs2">
    <linearGradient
       inkscape:collect="always"
       id="linearGradient5177">
      <stop
         style="stop-color:#000000;stop-opacity:1;"
         offset="0"
         id="stop5173" />
      <stop
         style="stop-color:#ff00eb;stop-opacity:0"
         offset="1"
         id="stop5175" />
    </linearGradient>
    <inkscape:path-effect
       effect="spiro"
       id="path-effect4535"
       is_visible="true" />
    <linearGradient
       inkscape:collect="always"
       xlink:href="#linearGradient5177"
       id="linearGradient5179"
       x1="117.33959"
       y1="79.117966"
       x2="117.33959"
       y2="63.620941"
       gradientUnits="userSpaceOnUse" />
    <linearGradient
       inkscape:collect="always"
       xlink:href="#linearGradient5177"
       id="linearGradient5191"
       gradientUnits="userSpaceOnUse"
       x1="117.33959"
       y1="79.117966"
       x2="117.33959"
       y2="63.620941"
       gradientTransform="translate(6.4255952)" />
    <linearGradient
       inkscape:collect="always"
       xlink:href="#linearGradient5177"
       id="linearGradient5195"
       gradientUnits="userSpaceOnUse"
       gradientTransform="translate(12.756696)"
       x1="117.33959"
       y1="79.117966"
       x2="117.33959"
       y2="63.620941" />
    <linearGradient
       inkscape:collect="always"
       xlink:href="#linearGradient5177"
       id="linearGradient5205"
       gradientUnits="userSpaceOnUse"
       gradientTransform="rotate(-180,125.71347,71.692015)"
       x1="117.33959"
       y1="79.117966"
       x2="117.33959"
       y2="63.620941" />
    <linearGradient
       inkscape:collect="always"
       xlink:href="#linearGradient5177"
       id="linearGradient5207"
       gradientUnits="userSpaceOnUse"
       gradientTransform="rotate(-180,122.54792,71.692015)"
       x1="117.33959"
       y1="79.117966"
       x2="117.33959"
       y2="63.620941" />
    <linearGradient
       inkscape:collect="always"
       xlink:href="#linearGradient5177"
       id="linearGradient5209"
       gradientUnits="userSpaceOnUse"
       x1="117.33959"
       y1="79.117966"
       x2="117.33959"
       y2="63.620941"
       gradientTransform="rotate(-180,128.92627,71.692015)" />
  </defs>
  <sodipodi:namedview
     id="base"
     pagecolor="#ffffff"
     bordercolor="#666666"
     borderopacity="1.0"
     inkscape:pageopacity="0.0"
     inkscape:pageshadow="2"
     inkscape:zoom="5.6"
     inkscape:cx="23.250374"
     inkscape:cy="14.576934"
     inkscape:document-units="mm"
     inkscape:current-layer="layer1"
     showgrid="false"
     inkscape:window-width="1366"
     inkscape:window-height="715"
     inkscape:window-x="-8"
     inkscape:window-y="-8"
     inkscape:window-maximized="1" />
  <metadata
     id="metadata5">
    <rdf:RDF>
      <cc:Work
         rdf:about="">
        <dc:format>image/svg+xml</dc:format>
        <dc:type
           rdf:resource="http://purl.org/dc/dcmitype/StillImage" />
        <dc:title></dc:title>
      </cc:Work>
    </rdf:RDF>
  </metadata>
  <g
     inkscape:label="Layer 1"
     inkscape:groupmode="layer"
     id="layer1"
     transform="translate(-36.615852,-63.941317)">
    <path
       style="opacity:1;fill:#ac10a4;fill-opacity:0;stroke:url(#linearGradient5179);stroke-width:0.21402466;stroke-linecap:butt;stroke-linejoin:miter;stroke-miterlimit:4;stroke-dasharray:none;stroke-dashoffset:0;stroke-opacity:1;paint-order:normal"
       clip-path="none"
       d="m 36.615852,63.563341 v 15.612222 h 61.518825 c 10.478543,0 18.509313,-7.799816 18.509313,-7.799816 0,0 7.41301,-7.812406 21.33859,-7.812406 z m 130.416728,0 c 0.0557,0.0045 0.11106,0.0081 0.16671,0.0128 0.0216,-0.0037 -0.0211,0.0039 0,0 z"
       id="rect4527"
       inkscape:connector-curvature="0"
       sodipodi:nodetypes="cccccccccc" />
    <path
       sodipodi:nodetypes="cccccccccc"
       inkscape:connector-curvature="0"
       id="path5189"
       d="m 43.041447,63.563341 v 15.612222 h 61.518823 c 10.47855,0 18.50932,-7.799816 18.50932,-7.799816 0,0 7.41301,-7.812406 21.33859,-7.812406 z m 130.416733,0 c 0.0557,0.0045 0.11106,0.0081 0.16671,0.0128 0.0216,-0.0037 -0.0211,0.0039 0,0 z"
       clip-path="none"
       style="opacity:1;fill:#ac10a4;fill-opacity:0;stroke:url(#linearGradient5191);stroke-width:0.21402466;stroke-linecap:butt;stroke-linejoin:miter;stroke-miterlimit:4;stroke-dasharray:none;stroke-dashoffset:0;stroke-opacity:1;paint-order:normal" />
    <path
       style="opacity:1;fill:#ac10a4;fill-opacity:0;stroke:url(#linearGradient5195);stroke-width:0.21402466;stroke-linecap:butt;stroke-linejoin:miter;stroke-miterlimit:4;stroke-dasharray:none;stroke-dashoffset:0;stroke-opacity:1;paint-order:normal"
       clip-path="none"
       d="m 49.372548,63.563341 v 15.612222 h 61.518822 c 10.47855,0 18.50932,-7.799816 18.50932,-7.799816 0,0 7.41301,-7.812406 21.33859,-7.812406 z m 130.416732,0 c 0.0557,0.0045 0.11106,0.0081 0.16671,0.0128 0.0216,-0.0037 -0.0211,0.0039 0,0 z"
       id="path5193"
       inkscape:connector-curvature="0"
       sodipodi:nodetypes="cccccccccc" />
    <path
       sodipodi:nodetypes="cccccccccc"
       inkscape:connector-curvature="0"
       id="path5197"
       d="m 36.615852,63.563341 v 15.612222 h 61.518825 c 10.478543,0 18.509313,-7.799816 18.509313,-7.799816 0,0 7.41301,-7.812406 21.33859,-7.812406 z m 130.416728,0 c 0.0557,0.0045 0.11106,0.0081 0.16671,0.0128 0.0216,-0.0037 -0.0211,0.0039 0,0 z"
       clip-path="none"
       style="opacity:1;fill:#ac10a4;fill-opacity:0;stroke:url(#linearGradient5179);stroke-width:0.21402466;stroke-linecap:butt;stroke-linejoin:miter;stroke-miterlimit:4;stroke-dasharray:none;stroke-dashoffset:0;stroke-opacity:1;paint-order:normal" />
    <path
       style="opacity:1;fill:#ac10a4;fill-opacity:0;stroke:url(#linearGradient5205);stroke-width:0.21402466;stroke-linecap:butt;stroke-linejoin:miter;stroke-miterlimit:4;stroke-dasharray:none;stroke-dashoffset:0;stroke-opacity:1;paint-order:normal"
       clip-path="none"
       d="M 214.8111,79.82069 V 64.208468 h -61.51883 c -10.47855,0 -18.50932,7.799816 -18.50932,7.799816 0,0 -7.41302,7.812406 -21.3386,7.812406 z m -130.416741,0 c -0.0557,-0.0045 -0.11106,-0.0081 -0.16671,-0.0128 -0.0216,0.0037 0.0211,-0.0039 0,0 z"
       id="path5199"
       inkscape:connector-curvature="0"
       sodipodi:nodetypes="cccccccccc" />
    <path
       sodipodi:nodetypes="cccccccccc"
       inkscape:connector-curvature="0"
       id="path5201"
       d="M 208.48,79.82069 V 64.208468 h -61.51883 c -10.47855,0 -18.50933,7.799816 -18.50933,7.799816 0,0 -7.41301,7.812406 -21.33859,7.812406 z m -130.416741,0 c -0.0557,-0.0045 -0.11106,-0.0081 -0.16671,-0.0128 -0.0216,0.0037 0.0211,-0.0039 0,0 z"
       clip-path="none"
       style="opacity:1;fill:#ac10a4;fill-opacity:0;stroke:url(#linearGradient5207);stroke-width:0.21402466;stroke-linecap:butt;stroke-linejoin:miter;stroke-miterlimit:4;stroke-dasharray:none;stroke-dashoffset:0;stroke-opacity:1;paint-order:normal" />
    <path
       style="opacity:1;fill:#ac10a4;fill-opacity:0;stroke:url(#linearGradient5209);stroke-width:0.21402466;stroke-linecap:butt;stroke-linejoin:miter;stroke-miterlimit:4;stroke-dasharray:none;stroke-dashoffset:0;stroke-opacity:1;paint-order:normal"
       clip-path="none"
       d="M 221.23669,79.82069 V 64.208468 h -61.51882 c -10.47855,0 -18.50932,7.799816 -18.50932,7.799816 0,0 -7.41301,7.812406 -21.3386,7.812406 z m -130.416731,0 c -0.0557,-0.0045 -0.11106,-0.0081 -0.16671,-0.0128 -0.0216,0.0037 0.0211,-0.0039 0,0 z"
       id="path5203"
       inkscape:connector-curvature="0"
       sodipodi:nodetypes="cccccccccc" />
    <rect
       style="opacity:1;fill:#ffffff;fill-opacity:1;stroke:none;stroke-width:0.26499999;stroke-linecap:butt;stroke-linejoin:miter;stroke-miterlimit:4;stroke-dasharray:none;stroke-dashoffset:0;stroke-opacity:1;paint-order:normal"
       id="rect5211"
       width="24.321529"
       height="19.109766"
       x="29.957041"
       y="59.948368" />
  </g>
</svg>
